<svg width="522" height="498" viewBox="0 0 522 498" fill="none" xmlns="http://www.w3.org/2000/svg">
<g clip-path="url(#clip0_689_29288)">
<path d="M314.592 468.651C308.383 510.9 299.157 552.694 286.292 587.146" stroke="#00BB53" stroke-width="20"/>
<path d="M324.791 347.376C323.994 383.664 320.802 426.385 314.59 468.65" stroke="#00BB53" stroke-width="20"/>
<path d="M317.254 225.212C323.049 265.597 325.68 306.571 324.784 347.369" stroke="#6161FF" stroke-width="20"/>
<path d="M285.826 108.202C303.03 144.792 311.528 185.359 317.246 225.209" stroke="#6161FF" stroke-width="20"/>
<path d="M194.313 45.2322C213.207 45.157 230.23 48.1959 243.398 55.7732C260.216 65.5174 274.305 83.6757 285.842 108.211" stroke="#F56900" stroke-width="20"/>
<path d="M75.5703 71.1743C113.71 57.2697 153.394 45.3913 194.305 45.2284" stroke="#F56900" stroke-width="20"/>
<path d="M-35.3545 122.562C-1.92843 103.482 37.3087 85.1215 75.5688 71.1729" stroke="#001A73" stroke-width="20"/>
</g>
<defs>
<clipPath id="clip0_689_29288">
<rect width="638" height="631" fill="white" transform="translate(-344.231 442.812) rotate(-60)"/>
</clipPath>
</defs>
</svg>
