<svg preserveAspectRatio="none" width="206" height="447" viewBox="0 0 206 447" fill="none" xmlns="http://www.w3.org/2000/svg">
<path fill-rule="evenodd" clip-rule="evenodd" d="M205.9 412.702V34.0859C205.9 13.6344 197.779 0 172.369 0H33.5307C8.12073 0 0 13.6344 0 34.0859V412.702C0 433.154 8.12073 446.788 33.5307 446.788H172.369C197.779 446.788 205.9 433.154 205.9 412.702ZM79.8975 5.76839C74.5445 5.76839 70.205 10.1119 70.205 15.4698C70.205 20.8277 74.5445 25.1711 79.8975 25.1711H126.002C131.355 25.1711 135.695 20.8277 135.695 15.4698C135.695 10.1119 131.355 5.76839 126.002 5.76839H79.8975Z" fill="#D9D9D9"/>
</svg>
